<svg width="102" height="102" viewBox="0 0 102 102" fill="none" xmlns="http://www.w3.org/2000/svg">
<path d="M7.3327 25.7887L51 0.57735L94.6673 25.7887V76.2113L51 101.423L7.3327 76.2113V25.7887Z" stroke="#004651"/>
<line x1="40.8365" y1="40.5164" x2="37.0007" y2="35.3377" stroke="#004651"/>
<path d="M37.3008 35.4727L25.9314 45.2727" stroke="#004651"/>
<line x1="25.621" y1="46.5139" x2="40.8426" y2="39.7426" stroke="#004651"/>
<line x1="25.5125" y1="46.6572" x2="31.7026" y2="58.3827" stroke="#004651"/>
<line x1="30.8202" y1="58.3787" x2="40.6061" y2="39.9624" stroke="#004651"/>
<path d="M25.938 45.2717L22.5799 58.8462" stroke="#004651"/>
<path d="M21.6797 64.4355L22.6797 57.9999" stroke="#004651"/>
<path d="M21.6851 64.3196L31.4333 57.124" stroke="#004651"/>
<line x1="31.5177" y1="58.1838" x2="41.4032" y2="64.0769" stroke="#004651"/>
<path d="M48.7062 52.6594L41.5657 64.8607" stroke="#004651"/>
<path d="M81.1016 46.9863L83.413 65.353" stroke="#004651"/>
<line x1="79.5379" y1="47.144" x2="79.1834" y2="52.2573" stroke="#004651"/>
<path d="M79.6953 51.834L83.4166 65.3558" stroke="#004651"/>
<line x1="67.6072" y1="63.8013" x2="78.696" y2="51.9252" stroke="#004651"/>
<line x1="49.6363" y1="52.8678" x2="67.7466" y2="63.5193" stroke="#004651"/>
<line x1="62.5132" y1="41.9367" x2="67.8977" y2="64.1121" stroke="#004651"/>
<line x1="62.6683" y1="41.6723" x2="78.7607" y2="51.7828" stroke="#004651"/>
<line x1="49.0567" y1="52.9198" x2="62.0799" y2="41.7169" stroke="#004651"/>
<path d="M61.5952 41.7398L68.4114 37.4556" stroke="#004651"/>
<path d="M77.8841 50.2597L70.115 38.3924" stroke="#004651"/>
<path d="M81.1101 48.0715L70.8742 38.0488" stroke="#004651"/>
<line x1="62.0328" y1="42.2184" x2="54.1123" y2="32.4069" stroke="#004651"/>
<path d="M53.9453 32.0684L71.2994 38.4171" stroke="#004651"/>
<line x1="54.7627" y1="32.5259" x2="41.1182" y2="40.61" stroke="#004651"/>
<path d="M54.3594 32.3633L37.0526 35.4744" stroke="#004651"/>
<path d="M41.0395 41.1872L62.4817 41.014" stroke="#004651"/>
<line x1="48.9826" y1="53.381" x2="40.6293" y2="40.4709" stroke="#004651"/>
<line x1="31.1449" y1="57.9428" x2="49.2439" y2="52.8138" stroke="#004651"/>
<line x1="22.6797" y1="57.498" x2="31.6797" y2="57.498" stroke="#004651"/>
<line x1="83.266" y1="64.164" x2="21.1322" y2="64.6913" stroke="#004651"/>
</svg>
