<svg width="29" height="30" viewBox="0 0 29 30" fill="none" xmlns="http://www.w3.org/2000/svg">
<path fill-rule="evenodd" clip-rule="evenodd" d="M8.73989 4.84473C5.26388 4.84473 2.51787 7.82668 2.76553 11.3324L3.27892 18.5999C3.50281 21.7691 6.11092 24.2246 9.25328 24.2246H19.4967C22.6391 24.2246 25.2472 21.7691 25.4711 18.5999L25.9845 11.3324C26.2321 7.82667 23.4861 4.84473 20.0101 4.84473H8.73989ZM5.73185 8.912C6.37159 7.92509 7.47521 7.26721 8.73989 7.26721L20.0101 7.26721C21.2748 7.26721 22.3785 7.92512 23.0182 8.91207L16.7416 14.4652C15.3866 15.664 13.3635 15.664 12.0086 14.4652L5.73185 8.912ZM5.19001 11.6515L5.66867 18.4273C5.803 20.3288 7.36786 21.8021 9.25328 21.8021H19.4967C21.3821 21.8021 22.947 20.3288 23.0813 18.4273L23.56 11.6516L18.3192 16.2883C16.061 18.2862 12.6891 18.2862 10.4309 16.2883L5.19001 11.6515Z" fill="#F2E2CE"/>
</svg>
